<svg width="152" height="51" viewBox="0 0 152 51" fill="none" xmlns="http://www.w3.org/2000/svg">
<path d="M53.2415 41.6164L53.0954 19.9764L57.3725 18.6865V38.3622H66.5635L67.6631 41.6137H53.2387L53.2415 41.6164Z" fill="#141D44"/>
<path d="M77.2973 41.6242C74.5414 41.6242 72.4442 40.7804 71.0083 39.0955C69.5698 37.408 68.8505 35.1534 68.8505 32.3292C68.8505 30.4454 69.1729 28.8197 69.815 27.4465C70.4572 26.0734 71.4024 25.0039 72.6508 24.2407C73.8965 23.4748 75.426 23.0933 77.2367 23.0933C79.83 23.0933 81.8114 23.8833 83.1784 25.4607C84.5453 27.0408 85.2288 29.3383 85.2288 32.3587V33.3288H72.7997C72.8989 34.9358 73.3288 36.231 74.0812 37.2118C74.8363 38.1926 75.9056 38.6817 77.2945 38.6817C78.339 38.6817 79.1851 38.3861 79.83 37.7976C80.4721 37.2091 80.9158 36.454 81.1583 35.5323H85.0193C84.7988 36.669 84.3799 37.6928 83.7681 38.6065C83.1536 39.5174 82.3158 40.2483 81.2492 40.7965C80.1827 41.3447 78.8654 41.6215 77.2973 41.6215V41.6242ZM72.8327 30.6819H81.2492C81.1886 29.1529 80.8111 27.9813 80.1193 27.1671C79.4248 26.3528 78.4548 25.9471 77.2091 25.9471C75.9634 25.9471 74.9355 26.3501 74.1914 27.1536C73.4473 27.9571 72.9953 29.1341 72.8327 30.6846V30.6819Z" fill="#141D44"/>
<path d="M124.451 41.6242C121.574 41.6242 119.432 40.7858 118.024 39.109C116.616 37.4322 115.913 35.183 115.913 32.3587C115.913 29.5345 116.616 27.2853 118.024 25.6085C119.432 23.9317 121.574 23.0933 124.451 23.0933C127.328 23.0933 129.469 23.9317 130.877 25.6085C132.286 27.2853 132.988 29.5345 132.988 32.3587C132.988 35.183 132.286 37.4322 130.877 39.109C129.469 40.7858 127.328 41.6242 124.451 41.6242ZM124.451 38.7408C125.939 38.7408 127.036 38.1873 127.738 37.0801C128.441 35.973 128.794 34.3983 128.794 32.3587C128.794 30.3191 128.441 28.7203 127.738 27.6239C127.036 26.5248 125.939 25.9766 124.451 25.9766C122.962 25.9766 121.841 26.5248 121.146 27.6239C120.452 28.7229 120.105 30.3003 120.105 32.3587C120.105 34.4171 120.452 35.973 121.146 37.0801C121.841 38.1873 122.94 38.7408 124.451 38.7408Z" fill="#141D44"/>
<path d="M112.052 24.957C111.126 23.7128 109.679 23.0894 107.708 23.0894C106.38 23.0894 105.319 23.3688 104.525 23.9278C103.732 24.4867 103.153 25.2364 102.792 26.1796L102.163 26.3785C101.761 25.4165 101.047 24.4652 100.212 23.9143C99.3772 23.3661 98.3272 23.0894 97.0595 23.0894C95.7918 23.0894 94.6867 23.3742 93.9233 23.9412C93.1599 24.5109 92.617 25.3036 92.2945 26.2253L91.5422 26.451L91.5697 23.5381L87.8575 24.6452V41.7143H91.9308V31.6481C91.9308 30.1594 92.2615 28.9071 92.9256 27.8968C93.5898 26.8864 94.5351 26.3812 95.7615 26.3812C96.7674 26.3812 97.4949 26.7493 97.9496 27.4829C98.4044 28.2165 98.6276 29.2726 98.6276 30.6458V41.7117H102.701V31.6454C102.701 30.1567 103.029 28.9045 103.682 27.8941C104.335 26.8837 105.275 26.3785 106.501 26.3785C107.507 26.3785 108.237 26.7466 108.689 27.4802C109.141 28.2165 109.367 29.2699 109.367 30.6431V41.709H113.441V29.9068C113.441 27.8484 112.978 26.1958 112.052 24.9516V24.957Z" fill="#141D44"/>
<path d="M149.683 24.957C148.708 23.7128 147.184 23.0894 145.114 23.0894C143.725 23.0894 142.637 23.3688 141.84 23.9278C141.046 24.4867 140.476 25.3036 140.115 26.2441L139.343 26.4806L139.382 23.5516L135.672 24.6587V41.717H139.746V31.6508C139.746 30.1621 140.112 28.9098 140.845 27.8994C141.581 26.8891 142.612 26.3839 143.937 26.3839C145.023 26.3839 145.817 26.752 146.321 27.4856C146.823 28.2219 147.076 29.2753 147.076 30.6485V41.7143H151.15V29.9122C151.15 27.8538 150.662 26.2011 149.686 24.957H149.683Z" fill="#141D44"/>
<path d="M4.47547 33.565C4.52507 33.1001 4.13098 29.4832 4.68767 26.9035C5.34633 23.8589 6.76286 20.9513 8.89041 18.6403C11.2026 16.1332 14.3912 15.1604 16.8742 12.9408C17.0479 12.7715 17.2931 12.6693 17.5715 12.5834C17.9683 12.4732 18.4396 12.4383 18.9026 12.4302C18.9908 12.4302 19.0762 12.4329 19.1644 12.4382C19.3463 12.4463 19.5254 12.449 19.6963 12.4624C20.1675 12.4974 20.6002 12.6505 20.8097 12.6828C20.862 12.6828 20.9502 12.7177 20.9998 12.6989H21.0164C21.0494 12.6908 21.2038 12.6479 21.4325 12.5968C21.8046 12.5135 22.3805 12.4087 22.9841 12.4087C23.4553 12.4087 23.9238 12.4436 24.3234 12.5457C24.6183 12.6317 24.8636 12.7338 25.0538 12.9031C25.6986 13.4809 26.4813 14.0103 27.2805 14.4671L27.3852 14.5181H27.4018C27.7821 14.7224 28.1652 14.9239 28.5317 15.112C32.2632 17.0226 35.0356 20.4246 36.4521 24.2807L4.47547 33.565Z" fill="#F8F963"/>
<path d="M31.9767 29.1401C31.9271 29.605 32.3212 33.222 31.7645 35.8017C31.1058 38.8463 29.6893 41.7512 27.5617 44.0649C25.2495 46.572 22.061 47.5448 19.5779 49.7671C19.4043 49.9364 19.159 50.0385 18.8806 50.1245C18.4838 50.232 18.0125 50.2696 17.5496 50.2777C17.4614 50.2777 17.3759 50.275 17.2877 50.2696C17.1059 50.2615 16.9267 50.2589 16.7559 50.2454C16.2846 50.2105 15.8519 50.0573 15.6425 50.0251C15.5901 50.0251 15.5019 49.9901 15.4523 50.0089H15.4358C15.4027 50.017 15.2484 50.06 15.0196 50.1111C14.6476 50.1944 14.0716 50.2992 13.4681 50.2992C12.9968 50.2992 12.5283 50.2642 12.1287 50.1621C11.8338 50.0761 11.5885 49.974 11.3984 49.8047C10.7535 49.227 9.97083 48.6976 9.17162 48.2408L9.0669 48.1897H9.05036C8.67005 47.9855 8.28698 47.7839 7.92045 47.5958C4.18896 45.6852 1.41653 42.2859 0 38.4271L31.9822 29.1482L31.9767 29.1401Z" fill="#F8F963"/>
<path d="M26.763 2.76163C26.7575 3.03035 26.8043 3.22383 26.8043 3.42537C26.7961 4.65342 26.5425 5.82235 25.9142 6.89992C25.6772 7.30569 25.3823 7.67652 25.0571 8.02317C24.6602 8.45043 24.211 8.81321 23.7287 9.14104C23.1417 9.53875 22.4969 9.83972 21.8382 10.1111C21.5792 10.2186 21.3063 10.3019 21.0418 10.3987C20.9729 10.4228 20.926 10.4148 20.915 10.3395C20.8544 9.97676 20.7772 9.61668 20.7221 9.25391C20.6394 8.7084 20.6614 8.16022 20.6532 7.61203C20.6477 7.28956 20.711 6.97247 20.7551 6.6527C20.8268 6.12869 20.9618 5.62081 21.1465 5.12368C21.3945 4.46263 21.7362 3.84995 22.1799 3.29101C22.9488 2.32093 23.9465 1.63301 25.0847 1.11438C25.3409 0.998827 25.6055 0.904775 25.8728 0.818785C26.187 0.713984 26.2945 0.617245 26.3606 0.818785C26.5122 1.28367 26.6335 1.75124 26.6941 2.23494C26.7189 2.43648 26.7547 2.63533 26.7657 2.767L26.763 2.76163Z" fill="#87FBE1"/>
</svg>
